<?xml version="1.0" encoding="utf-8"?>
<svg version="1.1" xmlns="http://www.w3.org/2000/svg" xmlns:xlink="http://www.w3.org/1999/xlink" x="0px" y="0px" width="1920px" height="1080px" viewBox="0 0 1920 1080" xml:space="preserve">
  <path d="M0,1080  L4.01673640167364,1080  L8.03347280334728,1080  L12.05020920502092,1080  L16.06694560669456,1080  L20.0836820083682,1080  L24.10041841004184,1080  L28.11715481171548,1080  L32.13389121338912,1080  L36.15062761506276,1080  L40.1673640167364,1080  L44.18410041841005,1080  L48.20083682008368,1080  L52.21757322175733,1080  L56.23430962343096,1080  L60.2510460251046,1080  L64.26778242677824,1080  L68.2845188284519,1080  L72.30125523012552,1080  L76.31799163179916,1080  L80.3347280334728,1080  L84.35146443514644,1080  L88.3682008368201,1080  L92.38493723849372,1079.94036  L96.40167364016736,1079.41548  L100.418410041841,1074.54924  L104.43514644351465,1073.54664  L108.4518828451883,1070.49636  L112.46861924686192,1069.00812  L116.48535564853556,1065.7884  L120.5020920502092,1062.42408  L124.51882845188285,1060.143  L128.53556485355648,1056.10908  L132.55230125523013,1053.92496  L136.5690376569038,1056.06924  L140.58577405857739,1057.30632  L144.60251046025104,1058.14548  L148.61924686192467,1056.54552  L152.63598326359832,1045.85844  L156.65271966527197,1040.17644  L160.6694560669456,1046.78724  L164.68619246861925,1039.23996  L168.70292887029288,1045.29168  L172.71966527196653,1044.8088  L176.7364016736402,1038.5958  L180.7531380753138,1028.628  L184.76987447698744,1041.31668  L188.7866108786611,1038.65052  L192.80334728033472,1036.90188  L196.82008368200837,1040.71332  L200.836820083682,1042.96344  L204.85355648535565,1033.70124  L208.8702928870293,1035.17676  L212.88702928870293,1018.25088  L216.9037656903766,1025.12496  L220.92050209205019,1021.3926  L224.93723849372384,1018.31688  L228.9539748953975,1003.31916  L232.97071129707112,1020.1422  L236.98744769874477,1017.4962  L241.0041841004184,1010.76912  L245.02092050209205,1013.5776  L249.0376569037657,1005.83076  L253.05439330543936,993.62844  L257.07112970711296,988.32504  L261.0878661087866,991.41396  L265.10460251046027,1000.2734399999999  L269.1213389121339,999.26772  L273.1380753138076,1004.75688  L277.1548117154812,990.41496  L281.17154811715477,979.43196  L285.1882845188284,989.2626  L289.2050209205021,959.39676  L293.22175732217573,979.39368  L297.23849372384933,977.8806  L301.255230125523,960.39036  L305.27196652719664,939.82932  L309.2887029288703,937.62564  L313.30543933054395,936.1872  L317.32217573221754,940.2996  L321.3389121338912,931.56204  L325.35564853556485,930.7885200000001  L329.3723849372385,958.06356  L333.38912133891216,921.76524  L337.40585774058576,928.62888  L341.4225941422594,937.71684  L345.43933054393307,949.5388800000001  L349.4560669456067,953.32704  L353.4728033472804,947.91192  L357.489539748954,966.69528  L361.5062761506276,977.00256  L365.5230125523012,970.30152  L369.5397489539749,958.473  L373.55648535564853,971.27136  L377.5732217573222,975.42816  L381.5899581589958,950.97636  L385.60669456066944,950.93904  L389.6234309623431,978.9648  L393.64016736401675,973.24632  L397.6569037656904,956.51712  L401.673640167364,963.84612  L405.69037656903765,969.48804  L409.7071129707113,969.8622  L413.72384937238496,961.62468  L417.7405857740586,983.97576  L421.7573221757322,977.1216  L425.77405857740587,938.68572  L429.7907949790795,938.42988  L433.8075313807532,936.108  L437.8242677824268,958.36692  L441.84100418410037,924.13596  L445.857740585774,924.0966  L449.8744769874477,923.9922  L453.89121338912133,940.60968  L457.907949790795,936.7674  L461.9246861924686,942.1032  L465.94142259414224,941.87772  L469.9581589958159,924.9005999999999  L473.97489539748955,910.04424  L477.9916317991632,914.6412  L482.0083682008368,933.7284  L486.0251046025105,934.75332  L490.0418410041841,914.6544  L494.0585774058577,901.45596  L498.0753138075314,908.78016  L502.092050209205,878.95764  L506.1087866108787,876.79008  L510.1255230125523,853.83504  L514.1422594142259,840.60576  L518.1589958158996,821.91588  L522.1757322175732,875.43984  L526.1924686192469,813.82572  L530.2092050209205,792.36528  L534.2259414225941,806.27712  L538.2426778242678,799.0886399999999  L542.2594142259414,797.0542800000001  L546.2761506276152,817.16916  L550.2928870292887,807.69204  L554.3096234309623,824.2143599999999  L558.326359832636,837.50352  L562.3430962343095,844.1052  L566.3598326359833,865.62576  L570.3765690376569,899.61156  L574.3933054393304,893.712  L578.4100418410042,862.81116  L582.4267782426778,892.07016  L586.4435146443515,914.9558400000001  L590.4602510460251,933.26892  L594.4769874476987,922.61976  L598.4937238493724,904.80756  L602.510460251046,920.53968  L606.5271966527197,912.48276  L610.5439330543933,912.89724  L614.5606694560669,905.4156  L618.5774058577406,912.6004800000001  L622.5941422594142,844.80636  L626.6108786610879,846.29124  L630.6276150627615,855.702  L634.6443514644351,771.57252  L638.6610878661088,850.95084  L642.6778242677824,880.0842  L646.6945606694561,815.3919599999999  L650.7112970711297,835.81404  L654.7280334728033,864.94524  L658.744769874477,825.13728  L662.7615062761506,806.6671200000001  L666.7782426778243,840.81228  L670.7949790794979,846.06348  L674.8117154811715,851.13468  L678.8284518828452,833.61168  L682.8451882845188,842.38296  L686.8619246861925,857.895  L690.8786610878661,822.0144  L694.8953974895397,845.9016  L698.9121338912134,817.08672  L702.928870292887,813.48084  L706.9456066945608,736.0729200000001  L710.9623430962343,754.33008  L714.979079497908,767.07804  L718.9958158995817,793.4578799999999  L723.0125523012553,708.4044  L727.0292887029289,730.96308  L731.0460251046024,743.2389599999999  L735.0627615062762,724.29348  L739.0794979079498,723.0360000000001  L743.0962343096234,680.78136  L747.1129707112971,692.6761200000001  L751.1297071129707,671.37588  L755.1464435146444,704.87844  L759.163179916318,706.92372  L763.1799163179916,720.67416  L767.1966527196653,729.0696  L771.2133891213389,814.16412  L775.2301255230126,813.92028  L779.2468619246862,811.43448  L783.2635983263598,820.65396  L787.2803347280335,851.94852  L791.2970711297071,841.4406  L795.3138075313808,846.42372  L799.3305439330544,788.79108  L803.347280334728,842.39484  L807.3640167364017,849.98352  L811.3807531380753,811.4594400000001  L815.397489539749,834.44196  L819.4142259414226,785.3886  L823.4309623430962,763.2626399999999  L827.4476987447699,801.7033200000001  L831.4644351464435,768.8184  L835.4811715481172,764.9141999999999  L839.4979079497908,796.90164  L843.5146443514644,775.03524  L847.5313807531381,775.2288000000001  L851.5481171548117,807.6754800000001  L855.5648535564854,809.8181999999999  L859.581589958159,801.4775999999999  L863.5983263598326,769.65348  L867.6150627615064,774.0348  L871.63179916318,771.4725599999999  L875.6485355648535,809.1408  L879.6652719665271,783.02352  L883.6820083682007,789.64944  L887.6987447698745,771.5109600000001  L891.715481171548,767.415  L895.7322175732218,754.42284  L899.7489539748954,733.39308  L903.765690376569,779.23224  L907.7824267782427,788.63292  L911.7991631799163,732.20952  L915.81589958159,657.63468  L919.8326359832636,658.4592  L923.8493723849372,627.95076  L927.8661087866109,631.54164  L931.8828451882845,543.27084  L935.8995815899582,547.54944  L939.9163179916318,545.43492  L943.9330543933054,515.85468  L947.9497907949791,542.54232  L951.9665271966527,533.5090799999999  L955.9832635983264,508.69043999999997  L960,550.40052  L964.0167364016736,542.35632  L968.0334728033472,554.59164  L972.050209205021,561.53088  L976.0669456066946,572.52576  L980.0836820083682,619.8862799999999  L984.1004184100418,629.13528  L988.1171548117154,651.42096  L992.1338912133892,691.22844  L996.1506276150628,705.82368  L1000.1673640167364,720.9408000000001  L1004.18410041841,722.22084  L1008.2008368200836,722.3453999999999  L1012.2175732217574,743.7701999999999  L1016.234309623431,760.23756  L1020.2510460251046,767.2049999999999  L1024.2677824267782,763.69296  L1028.2845188284518,712.008  L1032.3012552301257,689.96232  L1036.3179916317993,652.6942799999999  L1040.3347280334729,694.19136  L1044.3514644351465,715.37424  L1048.36820083682,715.42716  L1052.3849372384939,680.22492  L1056.4016736401675,678.9482399999999  L1060.418410041841,667.6278  L1064.4351464435147,671.96892  L1068.4518828451883,593.41044  L1072.468619246862,653.07936  L1076.4853556485357,654.33912  L1080.5020920502093,653.24472  L1084.5188284518829,664.16952  L1088.5355648535565,663.51648  L1092.5523012552303,671.3800799999999  L1096.569037656904,682.5500400000001  L1100.5857740585775,657.26772  L1104.602510460251,648.00972  L1108.6192468619247,640.4322  L1112.6359832635985,647.3844  L1116.652719665272,628.28244  L1120.6694560669457,602.40348  L1124.686192468619,549.4525199999999  L1128.702928870293,504.25896  L1132.7196652719665,537.16188  L1136.73640167364,468.47220000000004  L1140.7531380753137,461.02152  L1144.7698744769873,457.34844  L1148.786610878661,426.19536000000005  L1152.8033472803347,391.2994799999999  L1156.8200836820083,346.72524  L1160.836820083682,332.0042400000001  L1164.8535564853555,379.20144000000005  L1168.870292887029,350.95272  L1172.887029288703,376.2114  L1176.9037656903765,425.19180000000006  L1180.9205020920501,455.9943599999999  L1184.9372384937237,449.05643999999995  L1188.9539748953973,482.78351999999995  L1192.9707112970711,541.1570399999999  L1196.9874476987447,543.73932  L1201.0041841004183,556.0642799999999  L1205.020920502092,575.47008  L1209.0376569037655,602.39004  L1213.0543933054394,622.71972  L1217.071129707113,576.94128  L1221.0878661087866,556.65576  L1225.1046025104602,602.78088  L1229.1213389121338,638.43192  L1233.1380753138076,677.4144  L1237.1548117154812,657.45492  L1241.1715481171548,577.28412  L1245.1882845188284,504.28716  L1249.205020920502,510.82319999999993  L1253.2217573221758,567.73116  L1257.2384937238494,577.1756399999999  L1261.255230125523,665.1364799999999  L1265.2719665271966,611.21676  L1269.2887029288702,552.12972  L1273.305439330544,535.51788  L1277.3221757322176,560.6474400000001  L1281.3389121338912,614.2082399999999  L1285.3556485355648,647.46648  L1289.3723849372384,630.7398  L1293.3891213389122,605.2466400000001  L1297.4058577405858,591.7134  L1301.4225941422594,551.28984  L1305.439330543933,519.3612  L1309.4560669456066,568.932  L1313.4728033472804,550.27728  L1317.489539748954,514.6632  L1321.5062761506276,517.00116  L1325.5230125523012,505.04196  L1329.5397489539748,463.53876  L1333.5564853556486,390.63396  L1337.5732217573222,345.5232000000001  L1341.5899581589958,306.02772000000004  L1345.6066945606694,267.8218800000001  L1349.623430962343,305.49228000000005  L1353.6401673640169,297.98159999999996  L1357.6569037656905,227.6127600000001  L1361.673640167364,237.42624  L1365.6903765690377,295.6662  L1369.7071129707113,339.03192  L1373.723849372385,366.60504000000003  L1377.7405857740587,312.98316  L1381.7573221757323,255.0558000000001  L1385.7740585774059,249.15192000000002  L1389.7907949790795,306.16560000000004  L1393.8075313807533,419.26224  L1397.824267782427,432.43428000000006  L1401.8410041841005,468.7776  L1405.857740585774,443.85407999999995  L1409.8744769874477,438.69228  L1413.8912133891215,506.5716  L1417.907949790795,546.73356  L1421.9246861924687,570.8184  L1425.9414225941423,514.06452  L1429.958158995816,502.83948  L1433.9748953974895,554.63976  L1437.9916317991633,583.4784  L1442.0083682008367,550.59396  L1446.0251046025105,544.62324  L1450.041841004184,540.2412  L1454.0585774058577,410.64563999999996  L1458.0753138075313,491.58768  L1462.092050209205,537.43296  L1466.1087866108785,560.27376  L1470.1255230125523,638.3742  L1474.142259414226,553.5094799999999  L1478.1589958158995,485.65824  L1482.175732217573,520.1088  L1486.1924686192467,498.07572000000005  L1490.2092050209205,546.90792  L1494.2259414225941,542.4478799999999  L1498.2426778242677,546.9643199999999  L1502.2594142259413,549.66792  L1506.276150627615,539.69484  L1510.2928870292887,469.29276000000004  L1514.3096234309623,466.83912  L1518.326359832636,505.47731999999996  L1522.3430962343095,491.4462  L1526.3598326359831,434.71032  L1530.376569037657,462.3609600000001  L1534.3933054393306,431.35356  L1538.4100418410042,378.63347999999996  L1542.4267782426778,362.30820000000006  L1546.4435146443514,357.93636000000004  L1550.4602510460252,287.001  L1554.4769874476988,298.52747999999997  L1558.4937238493724,272.1942  L1562.510460251046,177.43859999999995  L1566.5271966527196,187.5328800000001  L1570.5439330543934,174.25788  L1574.560669456067,165.43211999999994  L1578.5774058577406,124.80888000000004  L1582.5941422594142,184.15728000000001  L1586.6108786610878,174.88103999999998  L1590.6276150627616,133.89347999999995  L1594.6443514644352,123.49475999999993  L1598.6610878661088,159.07943999999998  L1602.6778242677824,226.66044  L1606.694560669456,334.62792  L1610.7112970711298,383.46876  L1614.7280334728034,379.91292  L1618.744769874477,402.79596000000004  L1622.7615062761506,360.46547999999996  L1626.7782426778242,407.65296  L1630.794979079498,394.75091999999995  L1634.8117154811716,383.26152  L1638.8284518828452,383.26176  L1642.8451882845188,419.93664  L1646.8619246861924,409.28520000000003  L1650.8786610878662,471.48612  L1654.8953974895398,477.81816000000003  L1658.9121338912134,486.3689999999999  L1662.928870292887,470.7583199999999  L1666.9456066945606,425.7299999999999  L1670.9623430962345,459.34440000000006  L1674.979079497908,443.07251999999994  L1678.9958158995817,417.69539999999995  L1683.0125523012553,346.38192000000004  L1687.0292887029289,351.24348  L1691.0460251046027,403.57344  L1695.0627615062763,393.15816000000007  L1699.0794979079499,376.90152  L1703.0962343096235,433.1124  L1707.112970711297,401.68679999999995  L1711.129707112971,439.95251999999994  L1715.1464435146445,435.9760799999999  L1719.163179916318,444.81024  L1723.1799163179917,400.48223999999993  L1727.1966527196653,321.95112000000006  L1731.213389121339,355.85231999999996  L1735.2301255230127,364.44168  L1739.2468619246863,357.33252000000005  L1743.26359832636,325.77660000000003  L1747.2803347280335,271.16292  L1751.297071129707,235.25220000000002  L1755.313807531381,205.7489999999999  L1759.3305439330543,175.76340000000005  L1763.347280334728,164.36352  L1767.3640167364015,110.7525599999999  L1771.3807531380753,124.67507999999998  L1775.397489539749,95.98392000000001  L1779.4142259414225,74.97384  L1783.430962343096,83.57495999999992  L1787.4476987447697,14.958480000000009  L1791.4644351464435,42.98664000000008  L1795.4811715481171,21.630480000000034  L1799.4979079497907,67.09271999999999  L1803.5146443514643,79.46232000000009  L1807.531380753138,77.31948  L1811.5481171548117,178.99691999999993  L1815.5648535564853,145.23048000000006  L1819.581589958159,112.89192000000003  L1823.5983263598325,232.48163999999997  L1827.6150627615061,219.04548  L1831.63179916318,271.83323999999993  L1835.6485355648535,347.71176  L1839.6652719665271,368.65944  L1843.6820083682007,414.63455999999996  L1847.6987447698743,443.15135999999995  L1851.7154811715482,521.10768  L1855.7322175732218,507.77160000000003  L1859.7489539748954,452.25623999999993  L1863.765690376569,394.2282  L1867.7824267782426,412.1712  L1871.7991631799164,420.46296000000007  L1875.81589958159,479.6142  L1879.8326359832636,484.38120000000004  L1883.8493723849372,435.91584  L1887.8661087866108,402.981  L1891.8828451882846,297.72371999999996  L1895.8995815899582,299.83128  L1899.9163179916318,315.5125200000001  L1903.9330543933054,326.68488  L1907.949790794979,406.79232  L1911.9665271966528,421.68575999999996  L1915.9832635983264,398.72484  L1920,460.52747999999997 L1920,1080 L0,1080z"/>
</svg>